Albatross.2011.DVDScr-PA


Release Date: 12/01/2011


IMdb: http://www.imdb.com/title/tt1541149/

Rating: 6.7 imdb & 67% RT

Language: English

Type: DVDScr

Format: XViD avi

Size: 708MB

Source: Our good friend -- Many thanks m8

General
Complete name : /home/rapid/incoming/Albatross.avi
Format : AVI
Format/Info : Audio Video Interleave
File size : 697 MiB
Duration : 1h 29mn
Overall bit rate : 1 084 Kbps
Writing application : FairUse Wizard - http://fairusewizard.com
Writing library : The best and REALLY easy backup tool

Video
ID : 0
Format : MPEG-4 Visual
Format profile : Simple@L3
Format settings, BVOP : No
Format settings, QPel : No
Format settings, GMC : No warppoints
Format settings, Matrix : Default (H.263)
Codec ID : XVID
Codec ID/Hint : XviD
Duration : 1h 29mn
Bit rate : 946 Kbps
Width : 640 pixels
Height : 264 pixels
Display aspect ratio : 2.40:1
Frame rate : 23.976 fps
Color space : YUV
Chroma subsampling : 4:2:0
Bit depth : 8 bits
Scan type : Progressive
Compression mode : Lossy
Bits/(Pixel*Frame) : 0.234
Stream size : 609 MiB (87%)
Writing library : XviD 1.2.1 (UTC 2008-12-04)

Audio
ID : 1
Format : MPEG Audio
Format version : Version 1
Format profile : Layer 3
Mode : Joint stereo
Mode extension : MS Stereo
Codec ID : 55
Codec ID/Hint : MP3
Duration : 1h 29mn
Bit rate mode : Constant
Bit rate : 128 Kbps
Channel(s) : 2 channels
Sampling rate : 48.0 KHz
Compression mode : Lossy
Stream size : 82.3 MiB (12%)
Alignment : Aligned on interleaves
Interleave, duration : 42 ms (1.00 video frame)
Interleave, preload duration : 504 ms
Writing library : LAME3.97
Encoding settings : -m j -V 4 -q 2 -lowpass 17 -b 128


NOTES:
Another early DVDScr rls for y\'all .....avi instead of mkv format this time
...grab it, dont grab it ...whatever, up to you.


As always - respect to all the loyal PA crew, you know who u are...


LOOKING FOR:
Anything Fresh for 2012		 
http://www.hotimg.com/direct/uxgCbuA.jpg